<?xml version="1.0" encoding="utf-8" ?><svg viewBox="0 0 375 44" preserveAspectRatio="xMidYMid meet" xmlns="http://www.w3.org/2000/svg" xmlns:xlink="http://www.w3.org/1999/xlink" width="375" height="44"><path fill="#FFF" transform="matrix(-1.83697e-16 1 -1 -1.83697e-16 36.25 14.25)" d="M0.2197 0.2197C0.4859 -0.0466 0.9026 -0.0708 1.1962 0.1471L1.2803 0.2197L7.75 6.689L14.2197 0.2197C14.4859 -0.0466 14.9026 -0.0708 15.1962 0.1471L15.2803 0.2197C15.5466 0.4859 15.5708 0.9026 15.3529 1.1962L15.2803 1.2803L8.2803 8.2803C8.0141 8.5466 7.5974 8.5708 7.3038 8.3529L7.2197 8.2803L0.2197 1.2803C-0.0732 0.9874 -0.0732 0.5126 0.2197 0.2197Z"/><path fill="#FFF" transform="matrix(1 0 0 1 333 13)" d="M16.4305 11.4305C15.2593 11.4305 14.2311 12.0004 13.5807 12.8699L8.4131 10.4381C8.5159 10.0715 8.574 9.6871 8.574 9.287C8.574 8.8869 8.5159 8.5025 8.4131 8.1359L13.5785 5.7041C14.2289 6.5735 15.2593 7.1435 16.4283 7.1435C18.3996 7.1435 20 5.5454 20 3.5717C20 1.6004 18.4019 0 16.4283 0C14.4569 0 12.8565 1.5981 12.8565 3.5717C12.8565 3.8623 12.9012 4.1417 12.966 4.4122L7.8029 6.8418C7.0295 5.7309 5.7443 5.0022 4.2848 5.0022C1.9177 5.0022 0 6.92 0 9.287C0 11.654 1.9177 13.5717 4.2848 13.5717C5.7421 13.5717 7.0273 12.8431 7.8029 11.7322L12.966 14.1618C12.9012 14.4323 12.8565 14.7117 12.8565 15.0022C12.8565 16.9736 14.4546 18.574 16.4283 18.574C18.3996 18.574 20 16.9759 20 15.0022C20 13.0286 18.4019 11.4305 16.4305 11.4305ZM16.4305 1.4305C17.6129 1.4305 18.574 2.3916 18.574 3.574C18.574 4.7564 17.6129 5.7175 16.4305 5.7175C15.2481 5.7175 14.287 4.7564 14.287 3.574C14.287 2.3916 15.2481 1.4305 16.4305 1.4305ZM4.2892 12.1435C2.7135 12.1435 1.4327 10.8628 1.4327 9.287C1.4327 7.7112 2.7135 6.4305 4.2892 6.4305C5.865 6.4305 7.1457 7.7112 7.1457 9.287C7.1457 10.8628 5.8628 12.1435 4.2892 12.1435ZM16.4305 17.1435C15.2481 17.1435 14.287 16.1824 14.287 15C14.287 13.8176 15.2481 12.8565 16.4305 12.8565C17.6129 12.8565 18.574 13.8176 18.574 15C18.5717 16.1824 17.6106 17.1435 16.4305 17.1435Z"/></svg>