<?xml version="1.0" encoding="utf-8" ?><svg viewBox="0 0 28 28" preserveAspectRatio="xMidYMid meet" xmlns="http://www.w3.org/2000/svg" xmlns:xlink="http://www.w3.org/1999/xlink" width="28" height="28"><path fill="#85878D" transform="matrix(1 0 0 1 2.33333 3.5)" d="M22.1667 14L22.1667 17.5L25.6667 17.5L25.6667 19.8333L22.1667 19.8333L22.1667 23.3333L19.8333 23.3333L19.8333 19.8333L16.3333 19.8333L16.3333 17.5L19.8333 17.5L19.8333 14L22.1667 14ZM22.1762 0C22.8153 0 23.3333 0.5191 23.3333 1.159L23.3333 11.6667L21 11.6667L21 2.3333L2.3333 2.3333L2.3333 18.6655L14 7L17.5 10.5L17.5 13.8005L14 10.2998L5.6315 18.6667L14 18.6667L14 21L1.1571 21C0.5181 21 0 20.4809 0 19.841L0 1.159C0 0.5189 0.5312 0 1.1571 0L22.1762 0ZM7 4.6667C8.2887 4.6667 9.3333 5.7113 9.3333 7C9.3333 8.2887 8.2887 9.3333 7 9.3333C5.7113 9.3333 4.6667 8.2887 4.6667 7C4.6667 5.7113 5.7113 4.6667 7 4.6667Z"/></svg>