<?xml version="1.0" encoding="utf-8" ?><svg xmlns="http://www.w3.org/2000/svg" xmlns:xlink="http://www.w3.org/1999/xlink" width="8.3333" height="15" viewBox="0 0 8.3333 15"><path fill="#747981" d="M0 0L0 -0.75C-0.4142 -0.75 -0.75 -0.4142 -0.75 0L0 0ZM8.3333 0L9.0833 0C9.0833 -0.4142 8.7475 -0.75 8.3333 -0.75L8.3333 0ZM8.3333 15L8.3333 15.75C8.7475 15.75 9.0833 15.4142 9.0833 15L8.3333 15ZM0 15L-0.75 15C-0.75 15.4142 -0.4142 15.75 0 15.75L0 15ZM2.5 0.9167C2.0858 0.9167 1.75 1.2525 1.75 1.6667C1.75 2.0809 2.0858 2.4167 2.5 2.4167L2.5 1.6667L2.5 0.9167ZM5.8333 2.4167C6.2475 2.4167 6.5833 2.0809 6.5833 1.6667C6.5833 1.2525 6.2475 0.9167 5.8333 0.9167L5.8333 1.6667L5.8333 2.4167ZM3.3333 11.75C2.9191 11.75 2.5833 12.0858 2.5833 12.5C2.5833 12.9142 2.9191 13.25 3.3333 13.25L3.3333 12.5L3.3333 11.75ZM5 13.25C5.4142 13.25 5.75 12.9142 5.75 12.5C5.75 12.0858 5.4142 11.75 5 11.75L5 12.5L5 13.25ZM0 0L0 0.75L8.3333 0.75L8.3333 0L8.3333 -0.75L0 -0.75L0 0ZM8.3333 0L7.5833 0L7.5833 15L8.3333 15L9.0833 15L9.0833 0L8.3333 0ZM8.3333 15L8.3333 14.25L0 14.25L0 15L0 15.75L8.3333 15.75L8.3333 15ZM0 15L0.75 15L0.75 0L0 0L-0.75 0L-0.75 15L0 15ZM2.5 1.6667L2.5 2.4167L5.8333 2.4167L5.8333 1.6667L5.8333 0.9167L2.5 0.9167L2.5 1.6667ZM3.3333 12.5L3.3333 13.25L5 13.25L5 12.5L5 11.75L3.3333 11.75L3.3333 12.5Z"/></svg>